<svg xmlns="http://www.w3.org/2000/svg" viewBox="0 0 64 64" id="among-us-meeting"><g data-name="Layer 3"><path fill="#202020" d="M25.94 27a9 9 0 0 0-8.8-8c-5-.08-9.14 4.38-9.14 9.41V54a3 3 0 0 0 6 0v-.17A2.83 2.83 0 0 1 16.83 51h.34A2.83 2.83 0 0 1 20 53.83V54a3 3 0 0 0 6 0V34M3 32h5v13H3z"></path><path d="M23 58a4 4 0 0 1-4-4v-.17A1.83 1.83 0 0 0 17.17 52h-.34A1.83 1.83 0 0 0 15 53.83V54a4 4 0 1 1-8 0V28.41a10.63 10.63 0 0 1 3.19-7.54 9.71 9.71 0 0 1 7-2.87 10 10 0 0 1 9.77 8.89 1 1 0 1 1-2 .22A8 8 0 0 0 17.12 20a7.7 7.7 0 0 0-5.53 2.29A8.64 8.64 0 0 0 9 28.41V54a2 2 0 0 0 2 2 2 2 0 0 0 2-2v-.17A3.84 3.84 0 0 1 16.83 50h.34A3.84 3.84 0 0 1 21 53.83V54a2 2 0 0 0 2 2 2 2 0 0 0 2-2V34a1 1 0 0 1 2 0v20a4 4 0 0 1-4 4Z"></path><rect width="14" height="9.8" x="14" y="25.6" fill="#bfbfbf" rx="4.9" ry="4.9"></rect><path d="M23.1 36.4h-4.2a5.9 5.9 0 0 1 0-11.8h4.2a5.9 5.9 0 0 1 0 11.8zm-4.2-9.8a3.9 3.9 0 0 0 0 7.8h4.2a3.9 3.9 0 0 0 0-7.8zM8 46H3a1 1 0 0 1-1-1V32a1 1 0 0 1 1-1h5a1 1 0 0 1 1 1v13a1 1 0 0 1-1 1zm-4-2h3V33H4zm35-5.37a1 1 0 0 1-1-1V34a1 1 0 0 1 2 0v3.63a1 1 0 0 1-1 1z"></path><path d="M54 58a4 4 0 0 1-4-4v-.17A1.83 1.83 0 0 0 48.17 52h-.34A1.83 1.83 0 0 0 46 53.83V54a4 4 0 0 1-8 0V43.42a1 1 0 0 1 2 0V54a2 2 0 0 0 2 2 2 2 0 0 0 2-2v-.17A3.84 3.84 0 0 1 47.83 50h.34A3.84 3.84 0 0 1 52 53.83V54a2 2 0 0 0 2 2 2 2 0 0 0 2-2V28.41a8.64 8.64 0 0 0-2.59-6.12A7.72 7.72 0 0 0 47.88 20a8 8 0 0 0-7.83 7.11 1 1 0 1 1-2-.22 9.84 9.84 0 0 1 16.74-6A10.63 10.63 0 0 1 58 28.41V54a4 4 0 0 1-4 4Z"></path><path d="M43.5 35h-3a4.5 4.5 0 0 1 0-9h3a4.5 4.5 0 0 1 0 9zm-3-7a2.5 2.5 0 0 0 0 5h3a2.5 2.5 0 0 0 0-5zM62 46h-5a1 1 0 0 1-1-1V32a1 1 0 0 1 1-1h5a1 1 0 0 1 1 1v13a1 1 0 0 1-1 1zm-4-2h3V33h-3z"></path><path fill="#b90005" d="M47 38v5H36.5a2.5 2.5 0 0 1-2.5-2.5V40h-1.77a1.31 1.31 0 0 1 1.12-2Z"></path><path fill="#b90005" d="M39 43.42V54a3 3 0 0 0 6 0v-.17A2.83 2.83 0 0 1 47.83 51h.34A2.83 2.83 0 0 1 51 53.83V54a3 3 0 0 0 6 0V28.41c0-5-4.11-9.49-9.14-9.41a9 9 0 0 0-8.8 8M62 45h-5V32h5z"></path><path fill="#b90005" d="M47 38v5H36.5a2.5 2.5 0 0 1-2.5-2.5V40h-1.77a1.31 1.31 0 0 1 1.12-2Z"></path><path d="M47 44H36.5a3.5 3.5 0 0 1-3.5-3h-.81a1 1 0 0 1-.85-.48 2.31 2.31 0 0 1 2-3.52H47a1 1 0 0 1 1 1v5a1 1 0 0 1-1 1Zm-13.65-5H34a1 1 0 0 1 1 1v.5a1.5 1.5 0 0 0 1.5 1.5H46v-3Z"></path><path d="M39 38.63a1 1 0 0 1-1-1V34a1 1 0 0 1 2 0v3.63a1 1 0 0 1-1 1Z"></path><path d="M54 58a4 4 0 0 1-4-4v-.17A1.83 1.83 0 0 0 48.17 52h-.34A1.83 1.83 0 0 0 46 53.83V54a4 4 0 0 1-8 0V43.42a1 1 0 0 1 2 0V54a2 2 0 0 0 2 2 2 2 0 0 0 2-2v-.17A3.84 3.84 0 0 1 47.83 50h.34A3.84 3.84 0 0 1 52 53.83V54a2 2 0 0 0 2 2 2 2 0 0 0 2-2V28.41a8.64 8.64 0 0 0-2.59-6.12A7.72 7.72 0 0 0 47.88 20a8 8 0 0 0-7.83 7.11 1 1 0 1 1-2-.22 9.84 9.84 0 0 1 16.74-6A10.63 10.63 0 0 1 58 28.41V54a4 4 0 0 1-4 4Z"></path><rect width="14" height="9.8" x="37" y="25.6" fill="#bfbfbf" rx="4.9" ry="4.9" transform="rotate(-180 44 30.5)"></rect><path d="M46.1 36.4h-4.2a5.9 5.9 0 0 1 0-11.8h4.2a5.9 5.9 0 0 1 0 11.8zm-4.2-9.8a3.9 3.9 0 0 0 0 7.8h4.2a3.9 3.9 0 0 0 0-7.8zM62 46h-5a1 1 0 0 1-1-1V32a1 1 0 0 1 1-1h5a1 1 0 0 1 1 1v13a1 1 0 0 1-1 1zm-4-2h3V33h-3zm-11 0H36.5a3.5 3.5 0 0 1-3.5-3h-.81a1 1 0 0 1-.85-.48 2.31 2.31 0 0 1 2-3.52H47a1 1 0 0 1 1 1v5a1 1 0 0 1-1 1zm-13.65-5H34a1 1 0 0 1 1 1v.5a1.5 1.5 0 0 0 1.5 1.5H46v-3z"></path><rect width="2.99" height="2.99" x="5.53" y="15.95" fill="#fff" rx="1.34" ry="1.34" transform="rotate(-6.9 7.025 17.404)"></rect><path fill="#fff" d="M6.48 13a1.23 1.23 0 0 1-1.34-1L3.92 6.13A1.72 1.72 0 0 1 5.4 4.07a1.73 1.73 0 0 1 1.93 1.65l.22 6A1.22 1.22 0 0 1 6.48 13Z"></path><path d="M6.88 20a2.36 2.36 0 0 1-2.32-2.1v-.32a2.36 2.36 0 0 1 2-2.6h.32a2.35 2.35 0 0 1 2.6 2v.31A2.36 2.36 0 0 1 9 19a2.32 2.32 0 0 1-1.56.88h-.31zm.28-3h-.31a.28.28 0 0 0-.23.13.34.34 0 0 0-.07.24v.32a.34.34 0 0 0 .37.29h.32a.34.34 0 0 0 .22-.13.29.29 0 0 0 .07-.25v-.31a.34.34 0 0 0-.34-.3zm-.82-3a2.23 2.23 0 0 1-2.18-1.77L3 6.33a2.71 2.71 0 0 1 2.28-3.25 2.72 2.72 0 0 1 3.05 2.6l.22 6A2.22 2.22 0 0 1 6.6 14h-.26zm.14-1zm-.87-7.94h-.09a.73.73 0 0 0-.5.3.77.77 0 0 0-.12.57l1.22 5.89a.22.22 0 0 0 .24.17.23.23 0 0 0 .2-.22l-.23-6a.71.71 0 0 0-.72-.69z"></path></g></svg>