<svg xmlns="http://www.w3.org/2000/svg" viewBox="0 0 64 64" id="among-us-in-office"><g data-name="Layer 5"><path fill="#202020" d="M29.09 20.34a10.26 10.26 0 0 0-10-9.09c-5.72-.1-10.39 5-10.39 10.7v29.1a3.41 3.41 0 0 0 6.82 0v-.19a3.22 3.22 0 0 1 3.22-3.22h.38a3.22 3.22 0 0 1 3.22 3.22v.19a3.42 3.42 0 0 0 6.83 0V28.3M3 26.03h5.69v14.78H3z"></path><path d="M25.75 55.46a4.42 4.42 0 0 1-4.42-4.41v-.19a2.21 2.21 0 0 0-2.21-2.22h-.39a2.21 2.21 0 0 0-2.22 2.22v.19a4.41 4.41 0 1 1-8.82 0V22a12 12 0 0 1 3.58-8.49 10.83 10.83 0 0 1 7.83-3.21 11.24 11.24 0 0 1 11 10 1 1 0 1 1-2 .22 9.23 9.23 0 0 0-9-8.2 8.81 8.81 0 0 0-6.38 2.64 10 10 0 0 0-3 7.06v29.1a2.41 2.41 0 0 0 4.82 0v-.19a4.22 4.22 0 0 1 4.22-4.22h.39a4.22 4.22 0 0 1 4.21 4.22v.19a2.42 2.42 0 0 0 2.42 2.41 2.41 2.41 0 0 0 2.41-2.41V28.3a1 1 0 0 1 2 0v22.75a4.42 4.42 0 0 1-4.44 4.41Z"></path><rect width="15.92" height="11.15" x="15.51" y="18.75" fill="#bfbfbf" rx="5.57" ry="5.57"></rect><path d="M25.86 30.9h-4.78a6.58 6.58 0 0 1 0-13.15h4.78a6.58 6.58 0 0 1 0 13.15zm-4.78-11.15a4.58 4.58 0 0 0 0 9.15h4.78a4.58 4.58 0 0 0 0-9.15zM8.69 41.81H3a1 1 0 0 1-1-1V26a1 1 0 0 1 1-1h5.69a1 1 0 0 1 1 1v14.81a1 1 0 0 1-1 1zm-4.69-2h3.69V27H4z"></path><path fill="#2ea9ff" d="M39.39 31.72H61v21.61H39.39z"></path><path d="M61 54.32H39.39a1 1 0 0 1-1-1v-21.6a1 1 0 0 1 1-1H61a1 1 0 0 1 1 1v21.6a1 1 0 0 1-1 1Zm-20.61-2H60v-19.6H40.39Z"></path><path d="M61 54.32H39.39a1 1 0 0 1-1-1v-21.6a1 1 0 0 1 1-1H61a1 1 0 0 1 1 1v21.6a1 1 0 0 1-1 1Zm-20.61-2H60v-19.6H40.39Z"></path><path fill="#bfbfbf" d="M42.8 27.17h15.92v3.41H42.8zM55.88 25.46V9.54h3.41v15.92z"></path><path d="M58.73 31.58H42.8a1 1 0 0 1-1-1v-3.41a1 1 0 0 1 1-1h15.93a1 1 0 0 1 1 1v3.41a1 1 0 0 1-1 1Zm-14.93-2h13.93v-1.41H43.8Z"></path><path d="M59.29 26.46h-3.41a1 1 0 0 1-1-1V9.54a1 1 0 0 1 1-1h3.41a1 1 0 0 1 1 1v15.92a1 1 0 0 1-1 1zm-2.41-2h1.41V10.54h-1.41zm-.43 28.73a1 1 0 0 1-1-1v-7h-4.69a1 1 0 0 1 0-2h5.69a1 1 0 0 1 1 1v8a1 1 0 0 1-1 1z"></path><circle cx="48.49" cy="44.23" r="1.14"></circle><path d="M48.49 46.36a2.14 2.14 0 1 1 2.14-2.13 2.14 2.14 0 0 1-2.14 2.13Zm0-2.27a.14.14 0 0 0-.14.14c0 .15.28.15.28 0a.14.14 0 0 0-.14-.14Z"></path><path d="M48.49 46.36a2.14 2.14 0 1 1 2.14-2.13 2.14 2.14 0 0 1-2.14 2.13Zm0-2.27a.14.14 0 0 0-.14.14c0 .15.28.15.28 0a.14.14 0 0 0-.14-.14Z"></path></g></svg>