<svg xmlns="http://www.w3.org/2000/svg" viewBox="0 0 64 64" id="among-us-kill"><g data-name="Layer 9"><path fill="#b90005" d="M35.7 22.37a7.31 7.31 0 0 0-3.59-9.25 7.31 7.31 0 0 0-9.75 3.38l-2.13 4.37L17 27.53a11.3 11.3 0 0 1-.75.87 9 9 0 0 1-3.52 2.35c-1.57.55-2.57.37-4.34.59a17.22 17.22 0 0 0-6.5 2.25A15.29 15.29 0 0 1 6.23 33a15.49 15.49 0 0 1 3.81.5 21.06 21.06 0 0 1 6.56 3.19c.19.1.36.21.57.31a10.17 10.17 0 0 0 13.76-4.75l2.19-4.51"></path><path d="M21.66 39.11a10.67 10.67 0 0 1-5-1.22c-.13-.07-.28-.15-.42-.24l-.16-.09-.82-.56a17.43 17.43 0 0 0-5.46-2.53A14.86 14.86 0 0 0 6.22 34a15 15 0 0 0-4.06.55A1 1 0 0 1 1 34a1 1 0 0 1 .43-1.26 18.41 18.41 0 0 1 6.87-2.37c.63-.08 1.16-.11 1.66-.14a8.05 8.05 0 0 0 2.48-.41 7.79 7.79 0 0 0 3.12-2.08c.23-.25.44-.49.62-.72l5.32-10.94a8.29 8.29 0 0 1 15.3.92 8.22 8.22 0 0 1-.13 5.76 1 1 0 0 1-1.9-.76 6.29 6.29 0 0 0-11.51-5.06L17.9 28a1.88 1.88 0 0 1-.12.18c-.23.3-.5.62-.8.94a9.91 9.91 0 0 1-3.92 2.6 10.2 10.2 0 0 1-3 .52l-.93.06c.4.07.8.16 1.19.26a19.28 19.28 0 0 1 6.05 2.81c.29.18.54.35.78.49l.17.1a2.4 2.4 0 0 0 .32.17 8.76 8.76 0 0 0 6.88.56A9.51 9.51 0 0 0 30 31.81l2.19-4.51a1 1 0 0 1 1.8.88l-2.19 4.51a11.53 11.53 0 0 1-6.72 5.87 11.15 11.15 0 0 1-3.42.55Z"></path><rect width="12.16" height="6.08" x="25.06" y="20.43" fill="#bfbfbf" rx="3.04" ry="3.04" transform="rotate(25.91 31.147 23.478)"></rect><path fill="#b90005" d="m17 27.53 3.23-6.66-3.28-1.59-3.72 7.65 3.02 1.47"></path><path d="M33.87 28.84a4.05 4.05 0 0 1-1.76-.41l-5.47-2.66a4 4 0 1 1 3.53-7.26l5.47 2.65a4 4 0 0 1-1.77 7.68zm-5.46-8.74a2.19 2.19 0 0 0-.67.11 2 2 0 0 0-1.17 1 2 2 0 0 0-.09 1.56 2 2 0 0 0 1 1.16l5.52 2.7a2 2 0 0 0 2.82-2.5 2 2 0 0 0-1-1.17l-5.53-2.66a2.09 2.09 0 0 0-.88-.2zm-12.16 9.3a1 1 0 0 1-.44-.1l-3-1.47a1 1 0 0 1-.5-.57 1 1 0 0 1 0-.76l3.72-7.66a1 1 0 0 1 1.34-.46l3.3 1.62a1 1 0 0 1 .46 1.34L17.9 28a1 1 0 0 1-.66.53 1 1 0 0 1-1 .9zm-1.68-2.93 1.48.73a.93.93 0 0 1 .05-.1l2.8-5.76-1.49-.72z"></path><path fill="#bfbfbf" d="M35.38 38a2.26 2.26 0 0 1 1.81 3.62h11.33v3.63H37.19a2.27 2.27 0 1 1-1.81-.91 3.27 3.27 0 0 1 .45 0V42.5a2.22 2.22 0 0 1-.45 0 2.27 2.27 0 1 1 0-4.53Z"></path><path d="M35.38 49.89a3.27 3.27 0 0 1-.78-6.44 3.26 3.26 0 1 1 4-3.17v.36h9.89a1 1 0 0 1 1 1v3.63a1 1 0 0 1-1 1h-9.86v.36a3.27 3.27 0 0 1-3.25 3.26Zm0-4.53a1.27 1.27 0 1 0 1.27 1.27 1.29 1.29 0 0 0-.26-.76 1 1 0 0 1-.19-.53 1.15 1.15 0 0 1-.55 0 1.24 1.24 0 0 0-.27.02Zm1.45-2.79v1.76a1.13 1.13 0 0 1 .36-.06h10.33v-1.63H37.19a.92.92 0 0 1-.36-.07Zm-1-1.07a1.16 1.16 0 0 1 .37.07.94.94 0 0 1 .2-.53 1.35 1.35 0 0 0 .25-.76 1.27 1.27 0 1 0-1.27 1.27h.27Z"></path><path fill="#b90005" d="M44.9 51.61V35.3h14.5a2.72 2.72 0 1 1 0 5.43h-.16a2.57 2.57 0 0 0-2.56 2.57v.31a2.56 2.56 0 0 0 2.56 2.56h.16a2.72 2.72 0 0 1 0 5.44H44.9Z"></path><path d="M59.4 52.61H44.9a1 1 0 0 1-1-1V35.3a1 1 0 0 1 1-1h14.5a3.71 3.71 0 0 1 3.71 3.7 3.72 3.72 0 0 1-3.71 3.71h-.16a1.57 1.57 0 0 0-1.56 1.57v.31a1.56 1.56 0 0 0 1.56 1.56h.16a3.72 3.72 0 0 1 0 7.44Zm-13.5-2h13.5a1.71 1.71 0 0 0 1.71-1.72 1.72 1.72 0 0 0-1.71-1.72h-.16a3.57 3.57 0 0 1-3.56-3.56v-.31a3.57 3.57 0 0 1 3.56-3.57h.16a1.69 1.69 0 0 0 1.21-.5 1.74 1.74 0 0 0 .5-1.21 1.72 1.72 0 0 0-1.71-1.72H45.9Z"></path></g></svg>